<svg width="16" height="16" viewBox="0 0 16 16" fill="none" xmlns="http://www.w3.org/2000/svg">
<g id="explore">
<mask id="mask0_1_663" style="mask-type:alpha" maskUnits="userSpaceOnUse" x="0" y="0" width="16" height="16">
<rect id="Bounding box" width="16" height="16" fill="#D9D9D9"/>
</mask>
<g mask="url(#mask0_1_663)">
<path id="explore_2" d="M7.99989 8.80026C7.77767 8.81137 7.58878 8.73637 7.43323 8.57526C7.27767 8.41415 7.19989 8.22248 7.19989 8.00026C7.19989 7.77804 7.27767 7.58915 7.43323 7.43359C7.58878 7.27804 7.77767 7.20026 7.99989 7.20026C8.22212 7.20026 8.41101 7.27804 8.56656 7.43359C8.72212 7.58915 8.79989 7.77804 8.79989 8.00026C8.79989 8.22248 8.72212 8.41137 8.56656 8.56693C8.41101 8.72248 8.22212 8.80026 7.99989 8.80026ZM8.00106 14.0669C7.16951 14.0669 6.38501 13.909 5.64756 13.5933C4.91012 13.2775 4.26467 12.843 3.71123 12.2898C3.15778 11.7365 2.72306 11.0914 2.40706 10.3543C2.09117 9.61715 1.93323 8.83287 1.93323 8.00143C1.93323 7.15876 2.09112 6.37148 2.40689 5.63959C2.72267 4.9077 3.15717 4.26504 3.71039 3.71159C4.26362 3.15815 4.90878 2.72343 5.64589 2.40743C6.38301 2.09154 7.16728 1.93359 7.99873 1.93359C8.84139 1.93359 9.62867 2.09148 10.3606 2.40726C11.0925 2.72304 11.7351 3.15754 12.2886 3.71076C12.842 4.26398 13.2767 4.90637 13.5927 5.63793C13.9086 6.36948 14.0666 7.15654 14.0666 7.99909C14.0666 8.83065 13.9087 9.61515 13.5929 10.3526C13.2771 11.09 12.8426 11.7355 12.2894 12.2889C11.7362 12.8424 11.0938 13.2771 10.3622 13.5931C9.63067 13.909 8.84362 14.0669 8.00106 14.0669ZM7.99989 13.2003C9.44434 13.2003 10.6721 12.6947 11.6832 11.6836C12.6943 10.6725 13.1999 9.44471 13.1999 8.00026C13.1999 6.55582 12.6943 5.32804 11.6832 4.31693C10.6721 3.30582 9.44434 2.80026 7.99989 2.80026C6.55545 2.80026 5.32767 3.30582 4.31656 4.31693C3.30545 5.32804 2.79989 6.55582 2.79989 8.00026C2.79989 9.44471 3.30545 10.6725 4.31656 11.6836C5.32767 12.6947 6.55545 13.2003 7.99989 13.2003ZM7.99989 13.2003C6.55545 13.2003 5.32767 12.6947 4.31656 11.6836C3.30545 10.6725 2.79989 9.44471 2.79989 8.00026C2.79989 6.55582 3.30545 5.32804 4.31656 4.31693C5.32767 3.30582 6.55545 2.80026 7.99989 2.80026C9.44434 2.80026 10.6721 3.30582 11.6832 4.31693C12.6943 5.32804 13.1999 6.55582 13.1999 8.00026C13.1999 9.44471 12.6943 10.6725 11.6832 11.6836C10.6721 12.6947 9.44434 13.2003 7.99989 13.2003ZM9.07556 9.29126C9.13367 9.27337 9.18239 9.24476 9.22173 9.20543C9.26106 9.16609 9.28967 9.11737 9.30756 9.05926L10.9242 5.39893C10.9729 5.29893 10.9571 5.20898 10.8767 5.12909C10.7964 5.0492 10.7046 5.03148 10.6012 5.07593L6.92423 6.69259C6.86612 6.71048 6.81739 6.73909 6.77806 6.77843C6.73873 6.81776 6.71012 6.86648 6.69223 6.92459L5.09223 10.5849C5.04356 10.6891 5.05917 10.7812 5.13906 10.8611C5.21895 10.941 5.31101 10.9566 5.41523 10.9079L9.07556 9.29126Z" fill="#586E86"/>
</g>
</g>
</svg>
