<svg width="16" height="16" viewBox="0 0 16 16" fill="none" xmlns="http://www.w3.org/2000/svg">
<g id="group">
<mask id="mask0_1_653" style="mask-type:alpha" maskUnits="userSpaceOnUse" x="0" y="0" width="16" height="16">
<rect id="Bounding box" width="16" height="16" fill="#D9D9D9"/>
</mask>
<g mask="url(#mask0_1_653)">
<path id="group_2" d="M2.13196 11.1902C2.13196 10.9355 2.19285 10.7122 2.31462 10.5203C2.4364 10.3284 2.60657 10.1687 2.82512 10.041C3.36979 9.71999 3.94296 9.46716 4.54462 9.28249C5.1464 9.09793 5.83101 9.00566 6.59846 9.00566C7.36601 9.00566 8.05062 9.09793 8.65229 9.28249C9.25407 9.46716 9.82729 9.71999 10.372 10.041C10.5905 10.1687 10.7607 10.3284 10.8825 10.5203C11.0042 10.7122 11.0651 10.9355 11.0651 11.1902V11.4595C11.0651 11.6945 10.9805 11.8998 10.8113 12.0755C10.6421 12.2512 10.4335 12.339 10.1856 12.339H3.01129C2.76351 12.339 2.55501 12.2544 2.38579 12.0852C2.21657 11.9158 2.13196 11.7073 2.13196 11.4595V11.1902ZM12.0575 12.339C12.119 12.1971 12.169 12.0537 12.2075 11.9088C12.2459 11.7639 12.2651 11.6142 12.2651 11.4595V11.2415C12.2651 10.8262 12.1858 10.4452 12.0271 10.0987C11.8683 9.75221 11.6588 9.47038 11.3985 9.25316C11.7121 9.34205 12.0226 9.45077 12.33 9.57932C12.6372 9.70799 12.94 9.86205 13.2383 10.0415C13.4272 10.1475 13.5793 10.3085 13.6946 10.5247C13.81 10.7407 13.8676 10.9796 13.8676 11.2415V11.4595C13.8676 11.7073 13.783 11.9158 13.6138 12.0852C13.4446 12.2544 13.2361 12.339 12.9883 12.339H12.0575ZM6.59846 7.79532C6.02346 7.79532 5.53529 7.59466 5.13396 7.19332C4.73262 6.79188 4.53196 6.30366 4.53196 5.72866C4.53196 5.15366 4.73262 4.66549 5.13396 4.26416C5.53529 3.86271 6.02346 3.66199 6.59846 3.66199C7.17346 3.66199 7.66168 3.86271 8.06312 4.26416C8.46446 4.66549 8.66512 5.15366 8.66512 5.72866C8.66512 6.30366 8.46446 6.79188 8.06312 7.19332C7.66168 7.59466 7.17346 7.79532 6.59846 7.79532ZM11.2881 5.72866C11.2881 6.30366 11.0875 6.79188 10.6861 7.19332C10.2848 7.59466 9.79662 7.79532 9.22162 7.79532C9.17973 7.79532 9.15624 7.79788 9.15112 7.80299C9.1459 7.8081 9.1224 7.80599 9.08062 7.79666C9.32129 7.51388 9.51223 7.19932 9.65346 6.85299C9.79457 6.50666 9.86512 6.13166 9.86512 5.72799C9.86512 5.32421 9.79312 4.95071 9.64912 4.60749C9.50512 4.26438 9.31562 3.94882 9.08062 3.66082C9.10962 3.65993 9.13312 3.65993 9.15112 3.66082C9.16901 3.6616 9.19251 3.66199 9.22162 3.66199C9.79662 3.66199 10.2848 3.86271 10.6861 4.26416C11.0875 4.66549 11.2881 5.15366 11.2881 5.72866Z" fill="#586E86"/>
</g>
</g>
</svg>
