<svg width="16" height="16" viewBox="0 0 16 16" fill="none" xmlns="http://www.w3.org/2000/svg">
<g id="category">
<mask id="mask0_1_658" style="mask-type:alpha" maskUnits="userSpaceOnUse" x="0" y="0" width="16" height="16">
<rect id="Bounding box" width="16" height="16" fill="#D9D9D9"/>
</mask>
<g mask="url(#mask0_1_658)">
<path id="category_2" d="M5.55395 6.12358L7.53478 2.84808C7.58601 2.75663 7.65323 2.68908 7.73645 2.64541C7.81978 2.60186 7.90767 2.58008 8.00012 2.58008C8.09256 2.58008 8.18045 2.60186 8.26378 2.64541C8.34701 2.68908 8.41423 2.75663 8.46545 2.84808L10.4463 6.12358C10.4975 6.21324 10.5231 6.30736 10.5231 6.40591C10.5231 6.50436 10.4975 6.59447 10.4463 6.67624C10.3949 6.75658 10.3328 6.8213 10.2598 6.87041C10.1867 6.91952 10.0944 6.94408 9.98295 6.94408H6.01728C5.90539 6.94408 5.81273 6.91925 5.73928 6.86958C5.66584 6.81991 5.60406 6.75491 5.55395 6.67458C5.50273 6.59447 5.47712 6.50547 5.47712 6.40758C5.47712 6.30969 5.50273 6.21502 5.55395 6.12358ZM11.6016 14.1441C10.8955 14.1441 10.2948 13.897 9.79945 13.4027C9.30423 12.9084 9.05662 12.3082 9.05662 11.6021C9.05662 10.896 9.30373 10.2952 9.79795 9.79991C10.2923 9.30469 10.8925 9.05708 11.5986 9.05708C12.3047 9.05708 12.9054 9.30419 13.4008 9.79841C13.896 10.2927 14.1436 10.893 14.1436 11.5991C14.1436 12.3052 13.8965 12.9059 13.4023 13.4012C12.9079 13.8965 12.3077 14.1441 11.6016 14.1441ZM2.65662 13.2087V9.99608C2.65662 9.84441 2.70789 9.71663 2.81045 9.61275C2.91312 9.50897 3.04028 9.45708 3.19195 9.45708H6.40462C6.55628 9.45708 6.68406 9.50836 6.78795 9.61091C6.89173 9.71358 6.94362 9.84075 6.94362 9.99241V13.2051C6.94362 13.3567 6.89234 13.4845 6.78978 13.5884C6.68712 13.6922 6.55995 13.7441 6.40828 13.7441H3.19562C3.04395 13.7441 2.91617 13.6928 2.81228 13.5902C2.70851 13.4876 2.65662 13.3604 2.65662 13.2087Z" fill="#586E86"/>
</g>
</g>
</svg>
