<svg width="20" height="20" viewBox="0 0 20 20" fill="none" xmlns="http://www.w3.org/2000/svg">
<g id="info">
<mask id="mask0_1_854" style="mask-type:alpha" maskUnits="userSpaceOnUse" x="0" y="0" width="20" height="20">
<rect id="Bounding box" width="20" height="20" fill="#D9D9D9"/>
</mask>
<g mask="url(#mask0_1_854)">
<path id="info_2" d="M10.0004 13.9583C10.1776 13.9583 10.326 13.8983 10.4456 13.7785C10.5653 13.6587 10.6252 13.5103 10.6252 13.3333V9.79159C10.6252 9.6145 10.5652 9.46603 10.4454 9.34617C10.3255 9.22645 10.177 9.16659 9.99996 9.16659C9.82273 9.16659 9.67433 9.22645 9.55475 9.34617C9.43502 9.46603 9.37516 9.6145 9.37516 9.79159V13.3333C9.37516 13.5103 9.43509 13.6587 9.55496 13.7785C9.67482 13.8983 9.82329 13.9583 10.0004 13.9583ZM10.0002 7.74034C10.1909 7.74034 10.3507 7.67582 10.4797 7.54679C10.6088 7.41777 10.6733 7.25791 10.6733 7.06721C10.6733 6.87652 10.6088 6.71666 10.4797 6.58763C10.3507 6.45874 10.1909 6.39429 10.0002 6.39429C9.80947 6.39429 9.64961 6.45874 9.52058 6.58763C9.39155 6.71666 9.32704 6.87652 9.32704 7.06721C9.32704 7.25791 9.39155 7.41777 9.52058 7.54679C9.64961 7.67582 9.80947 7.74034 10.0002 7.74034ZM10.0016 17.9166C8.90662 17.9166 7.87739 17.7088 6.91391 17.2933C5.95044 16.8777 5.11239 16.3137 4.39975 15.6014C3.68711 14.889 3.12287 14.0513 2.70704 13.0883C2.29134 12.1252 2.0835 11.0962 2.0835 10.0014C2.0835 8.90638 2.29127 7.87714 2.70683 6.91367C3.12239 5.9502 3.68634 5.11214 4.3987 4.3995C5.11107 3.68686 5.94877 3.12263 6.91183 2.70679C7.87489 2.2911 8.90384 2.08325 9.99871 2.08325C11.0937 2.08325 12.1229 2.29103 13.0864 2.70659C14.0499 3.12214 14.8879 3.6861 15.6006 4.39846C16.3132 5.11082 16.8775 5.94853 17.2933 6.91159C17.709 7.87464 17.9168 8.9036 17.9168 9.99846C17.9168 11.0935 17.7091 12.1227 17.2935 13.0862C16.8779 14.0496 16.314 14.8877 15.6016 15.6003C14.8893 16.313 14.0516 16.8772 13.0885 17.293C12.1254 17.7087 11.0965 17.9166 10.0016 17.9166ZM10.0002 16.6666C11.8613 16.6666 13.4377 16.0208 14.7293 14.7291C16.021 13.4374 16.6668 11.861 16.6668 9.99992C16.6668 8.13881 16.021 6.56242 14.7293 5.27075C13.4377 3.97909 11.8613 3.33325 10.0002 3.33325C8.13905 3.33325 6.56266 3.97909 5.271 5.27075C3.97933 6.56242 3.3335 8.13881 3.3335 9.99992C3.3335 11.861 3.97933 13.4374 5.271 14.7291C6.56266 16.0208 8.13905 16.6666 10.0002 16.6666Z" fill="currentColor"/>
</g>
</g>
</svg>
