<svg width="20" height="20" viewBox="0 0 20 20" fill="none" xmlns="http://www.w3.org/2000/svg">
<g id="checkbook">
<mask id="mask0_1_859" style="mask-type:alpha" maskUnits="userSpaceOnUse" x="0" y="0" width="20" height="20">
<rect id="Bounding box" width="20" height="20" fill="#D9D9D9"/>
</mask>
<g mask="url(#mask0_1_859)">
<path id="checkbook_2" d="M5.83325 12.2916H11.3124C11.5208 12.2916 11.677 12.2267 11.7812 12.0968C11.8853 11.9668 11.9374 11.8239 11.9374 11.668C11.9374 11.5122 11.8853 11.3688 11.7812 11.2378C11.677 11.107 11.5208 11.0416 11.3124 11.0416H5.83325C5.65617 11.0416 5.50777 11.1015 5.38804 11.2214C5.26818 11.3412 5.20825 11.4897 5.20825 11.6668C5.20825 11.844 5.26818 11.9924 5.38804 12.112C5.50777 12.2317 5.65617 12.2916 5.83325 12.2916ZM5.83325 8.95825H9.16659C9.34367 8.95825 9.49207 8.89832 9.61179 8.77846C9.73166 8.6586 9.79159 8.51013 9.79159 8.33304C9.79159 8.15582 9.73166 8.00742 9.61179 7.88784C9.49207 7.76811 9.34367 7.70825 9.16659 7.70825H5.83325C5.65617 7.70825 5.50777 7.76818 5.38804 7.88804C5.26818 8.0079 5.20825 8.15638 5.20825 8.33346C5.20825 8.51068 5.26818 8.65909 5.38804 8.77867C5.50777 8.89839 5.65617 8.95825 5.83325 8.95825ZM3.58971 15.4166C3.1754 15.4166 2.82075 15.2691 2.52575 14.9741C2.23075 14.6791 2.08325 14.3244 2.08325 13.9101V6.08971C2.08325 5.6754 2.23075 5.32075 2.52575 5.02575C2.82075 4.73075 3.1754 4.58325 3.58971 4.58325H16.4101C16.8244 4.58325 17.1791 4.73075 17.4741 5.02575C17.7691 5.32075 17.9166 5.6754 17.9166 6.08971V7.45179C17.9166 7.62888 17.8567 7.77735 17.7368 7.89721C17.6169 8.01693 17.4685 8.07679 17.2914 8.07679C17.1142 8.07679 16.9658 8.01693 16.8462 7.89721C16.7264 7.77735 16.6666 7.62888 16.6666 7.45179V6.08971C16.6666 6.01485 16.6426 5.95339 16.5945 5.90534C16.5464 5.85728 16.485 5.83325 16.4101 5.83325H3.58971C3.51485 5.83325 3.45339 5.85728 3.40534 5.90534C3.35728 5.95339 3.33325 6.01485 3.33325 6.08971V13.9101C3.33325 13.985 3.35728 14.0464 3.40534 14.0945C3.45339 14.1426 3.51485 14.1666 3.58971 14.1666H9.07846C9.25554 14.1666 9.40402 14.2265 9.52388 14.3464C9.6436 14.4662 9.70346 14.6147 9.70346 14.7918C9.70346 14.969 9.6436 15.1174 9.52388 15.237C9.40402 15.3567 9.25554 15.4166 9.07846 15.4166H3.58971ZM18.5222 10.1058C18.5864 10.1705 18.6185 10.2417 18.6185 10.3193C18.6185 10.3969 18.586 10.4682 18.5212 10.533L17.8203 11.2339L16.7626 10.1762L17.4637 9.47554C17.5287 9.41054 17.6001 9.37804 17.678 9.37804C17.7558 9.37804 17.8268 9.41013 17.891 9.47429L18.5222 10.1058ZM17.3364 11.7339L12.2049 16.8653C12.1427 16.9273 12.0726 16.9737 11.9947 17.0047C11.9168 17.0357 11.8362 17.0512 11.753 17.0512H11.282C11.1964 17.0512 11.1217 17.0191 11.0576 16.9549C10.9935 16.8909 10.9614 16.8162 10.9614 16.7308V16.2595C10.9614 16.1764 10.9769 16.096 11.008 16.018C11.039 15.9401 11.0855 15.87 11.1474 15.8076L16.2787 10.6762L17.3364 11.7339Z" fill="currentColor"/>
</g>
</g>
</svg>
