<svg width="24" height="24" viewBox="0 0 24 24" fill="none" xmlns="http://www.w3.org/2000/svg">
<g id="campaign">
<mask id="mask0_1_96" style="mask-type:alpha" maskUnits="userSpaceOnUse" x="0" y="0" width="24" height="24">
<rect id="Bounding box" width="24" height="24" fill="#D9D9D9"/>
</mask>
<g mask="url(#mask0_1_96)">
<path id="campaign_2" d="M20.827 12.75H18.7115C18.4986 12.75 18.3205 12.6782 18.177 12.5345C18.0333 12.391 17.9615 12.2129 17.9615 12C17.9615 11.7872 18.0333 11.609 18.177 11.4655C18.3205 11.3219 18.4986 11.25 18.7115 11.25H20.827C21.0398 11.25 21.218 11.3219 21.3615 11.4655C21.5051 11.609 21.577 11.7872 21.577 12C21.577 12.2129 21.5051 12.391 21.3615 12.5345C21.218 12.6782 21.0398 12.75 20.827 12.75ZM16.6672 16.7135C16.7954 16.5379 16.9592 16.4365 17.1587 16.4095C17.3581 16.3827 17.5456 16.4334 17.7212 16.5615L19.4077 17.8288C19.5834 17.9571 19.6846 18.121 19.7115 18.3203C19.7385 18.5196 19.6878 18.7071 19.5595 18.8828C19.4313 19.0583 19.2676 19.1595 19.0682 19.1865C18.8689 19.2135 18.6814 19.1629 18.5057 19.0345L16.8192 17.7673C16.6436 17.6391 16.5423 17.4754 16.5155 17.276C16.4885 17.0767 16.5391 16.8892 16.6672 16.7135ZM19.3692 6.13278L17.6827 7.40003C17.5071 7.5282 17.3196 7.57887 17.1202 7.55203C16.9209 7.52503 16.7571 7.4237 16.6287 7.24803C16.5006 7.07253 16.45 6.88503 16.477 6.68553C16.5038 6.4862 16.6051 6.32245 16.7807 6.19428L18.4672 4.92703C18.6429 4.79887 18.8304 4.7482 19.0297 4.77503C19.2291 4.80203 19.3929 4.90328 19.5212 5.07879C19.6494 5.25445 19.7 5.44195 19.673 5.64129C19.6461 5.84079 19.5449 6.00462 19.3692 6.13278ZM5.24997 14.577H4.23072C3.73206 14.577 3.30614 14.4004 2.95297 14.047C2.59964 13.6939 2.42297 13.268 2.42297 12.7693V11.2308C2.42297 10.7321 2.59964 10.3062 2.95297 9.95303C3.30614 9.5997 3.73206 9.42303 4.23072 9.42303H8.09622L11.2057 7.56353C11.5071 7.3827 11.8109 7.38112 12.1172 7.55878C12.4237 7.73628 12.577 7.99745 12.577 8.34228V15.6578C12.577 16.0026 12.4237 16.2638 12.1172 16.4413C11.8109 16.619 11.5071 16.6174 11.2057 16.4365L8.09622 14.577H6.74997V17.7308C6.74997 17.9436 6.67814 18.1218 6.53447 18.2653C6.39097 18.409 6.21281 18.4808 5.99997 18.4808C5.78714 18.4808 5.60897 18.409 5.46547 18.2653C5.32181 18.1218 5.24997 17.9436 5.24997 17.7308V14.577ZM11.077 14.5848V9.41528L8.51147 10.923H4.23072C4.15389 10.923 4.08339 10.9551 4.01922 11.0193C3.95506 11.0835 3.92297 11.154 3.92297 11.2308V12.7693C3.92297 12.8461 3.95506 12.9166 4.01922 12.9808C4.08339 13.045 4.15389 13.077 4.23072 13.077H8.51147L11.077 14.5848ZM13.9615 15.1193V8.88078C14.3538 9.23595 14.6698 9.68337 14.9095 10.223C15.1493 10.7629 15.2692 11.3552 15.2692 12C15.2692 12.6449 15.1493 13.2372 14.9095 13.777C14.6698 14.3167 14.3538 14.7641 13.9615 15.1193Z" fill="#00C7BE"/>
</g>
</g>
</svg>
