<svg width="24" height="24" viewBox="0 0 24 24" fill="none" xmlns="http://www.w3.org/2000/svg">
<g id="home_work">
<mask id="mask0_1_107" style="mask-type:alpha" maskUnits="userSpaceOnUse" x="0" y="0" width="24" height="24">
<rect id="Bounding box" width="24" height="24" fill="#D9D9D9"/>
</mask>
<g mask="url(#mask0_1_107)">
<path id="home_work_2" d="M1.5 12.1788C1.5 11.8839 1.567 11.6061 1.701 11.3453C1.835 11.0842 2.0225 10.8717 2.2635 10.7077L6.95575 7.3635C7.12208 7.24383 7.29217 7.15783 7.466 7.1055C7.63983 7.05317 7.8175 7.027 7.999 7.027C8.1805 7.027 8.35842 7.05317 8.53275 7.1055C8.70692 7.15783 8.87742 7.24383 9.04425 7.3635L13.7365 10.7077C13.9775 10.8717 14.165 11.0842 14.299 11.3453C14.433 11.6061 14.5 11.8839 14.5 12.1788V18.6923C14.5 19.1894 14.323 19.615 13.969 19.969C13.615 20.323 13.1894 20.5 12.6923 20.5H11.7308C11.2336 20.5 10.808 20.323 10.454 19.969C10.1 19.615 9.923 19.1894 9.923 18.6923V16.173C9.923 15.8365 9.80525 15.5505 9.56975 15.315C9.33408 15.0793 9.048 14.9615 8.7115 14.9615H7.2885C6.952 14.9615 6.66592 15.0793 6.43025 15.315C6.19475 15.5505 6.077 15.8365 6.077 16.173V18.6923C6.077 19.1894 5.9 19.615 5.546 19.969C5.192 20.323 4.76642 20.5 4.26925 20.5H3.30775C2.81058 20.5 2.385 20.323 2.031 19.969C1.677 19.615 1.5 19.1894 1.5 18.6923V12.1788ZM22.5 5.30775V18.6923C22.5 19.1894 22.323 19.615 21.969 19.969C21.615 20.323 21.1894 20.5 20.6923 20.5H17.3845C17.1397 20.5 16.931 20.4138 16.7585 20.2413C16.5862 20.0689 16.5 19.8603 16.5 19.6152V11.1788C16.5 10.8839 16.4356 10.6061 16.3068 10.3453C16.1779 10.0842 15.9933 9.87133 15.753 9.7065L11.0463 6.33275C10.8296 6.17242 10.6562 5.98683 10.526 5.776C10.3958 5.56517 10.3308 5.33342 10.3308 5.08075V4.90775C10.3308 4.49108 10.4689 4.15233 10.7452 3.8915C11.0216 3.6305 11.3783 3.5 11.8155 3.5H20.6923C21.1894 3.5 21.615 3.677 21.969 4.031C22.323 4.385 22.5 4.81058 22.5 5.30775ZM17.5673 8.8845H18.4328C18.5533 8.8845 18.6587 8.83933 18.749 8.749C18.8393 8.65867 18.8845 8.55325 18.8845 8.43275V7.56725C18.8845 7.44675 18.8393 7.34133 18.749 7.251C18.6587 7.16067 18.5533 7.1155 18.4328 7.1155H17.5673C17.4468 7.1155 17.3413 7.16067 17.251 7.251C17.1607 7.34133 17.1155 7.44675 17.1155 7.56725V8.43275C17.1155 8.55325 17.1607 8.65867 17.251 8.749C17.3413 8.83933 17.4468 8.8845 17.5673 8.8845ZM17.5673 12.8845H18.4328C18.5533 12.8845 18.6587 12.8393 18.749 12.749C18.8393 12.6587 18.8845 12.5532 18.8845 12.4327V11.5673C18.8845 11.4468 18.8393 11.3413 18.749 11.251C18.6587 11.1607 18.5533 11.1155 18.4328 11.1155H17.5673C17.4468 11.1155 17.3413 11.1607 17.251 11.251C17.1607 11.3413 17.1155 11.4468 17.1155 11.5673V12.4327C17.1155 12.5532 17.1607 12.6587 17.251 12.749C17.3413 12.8393 17.4468 12.8845 17.5673 12.8845ZM17.5673 16.8845H18.4328C18.5533 16.8845 18.6587 16.8393 18.749 16.749C18.8393 16.6587 18.8845 16.5532 18.8845 16.4327V15.5673C18.8845 15.4468 18.8393 15.3413 18.749 15.251C18.6587 15.1607 18.5533 15.1155 18.4328 15.1155H17.5673C17.4468 15.1155 17.3413 15.1607 17.251 15.251C17.1607 15.3413 17.1155 15.4468 17.1155 15.5673V16.4327C17.1155 16.5532 17.1607 16.6587 17.251 16.749C17.3413 16.8393 17.4468 16.8845 17.5673 16.8845Z" fill="#00C7BE"/>
</g>
</g>
</svg>
