<svg width="40" height="40" viewBox="0 0 40 40" fill="none" xmlns="http://www.w3.org/2000/svg">
<g id="add_circle">
<mask id="mask0_1_139" style="mask-type:alpha" maskUnits="userSpaceOnUse" x="0" y="0" width="40" height="40">
<rect id="Bounding box" width="40" height="40" fill="#D9D9D9"/>
</mask>
<g mask="url(#mask0_1_139)">
<path id="add_circle_2" d="M19.0151 21.1257V26.8694C19.0151 27.1661 19.1159 27.4148 19.3176 27.6157C19.5195 27.8162 19.7695 27.9165 20.0676 27.9165C20.3659 27.9165 20.6141 27.8162 20.8122 27.6157C21.0099 27.4148 21.1088 27.1661 21.1088 26.8694V21.1257H26.8697C27.1663 21.1257 27.4151 21.0248 27.6159 20.8232C27.8165 20.6215 27.9167 20.3715 27.9167 20.0732C27.9167 19.7751 27.8165 19.5271 27.6159 19.329C27.4151 19.1309 27.1663 19.0319 26.8697 19.0319H21.1088V13.1303C21.1088 12.8336 21.008 12.5848 20.8063 12.384C20.6047 12.1834 20.3547 12.0832 20.0563 12.0832C19.7583 12.0832 19.5102 12.1834 19.3122 12.384C19.1141 12.5848 19.0151 12.8336 19.0151 13.1303V19.0319H13.1305C12.8338 19.0319 12.5851 19.1328 12.3842 19.3344C12.1837 19.5364 12.0834 19.7864 12.0834 20.0844C12.0834 20.3828 12.1837 20.6309 12.3842 20.829C12.5851 21.0268 12.8338 21.1257 13.1305 21.1257H19.0151ZM20.0101 35.8332C17.8181 35.8332 15.7619 35.4176 13.8413 34.5865C11.9208 33.7554 10.244 32.6229 8.81091 31.189C7.37786 29.7548 6.2455 28.078 5.41383 26.1586C4.58244 24.2389 4.16675 22.184 4.16675 19.994C4.16675 17.804 4.5823 15.7471 5.41341 13.8232C6.24453 11.899 7.37703 10.2243 8.81091 8.799C10.2451 7.37373 11.9219 6.24525 13.8413 5.41359C15.7611 4.5822 17.8159 4.1665 20.0059 4.1665C22.1959 4.1665 24.2529 4.58206 26.1767 5.41317C28.1009 6.24428 29.7756 7.3722 31.2009 8.79692C32.6262 10.2216 33.7547 11.8971 34.5863 13.8232C35.4177 15.7493 35.8334 17.8048 35.8334 19.9898C35.8334 22.1818 35.4179 24.238 34.5868 26.1586C33.7556 28.0791 32.6277 29.7543 31.203 31.184C29.7783 32.6137 28.1029 33.7459 26.1767 34.5807C24.2506 35.4157 22.1951 35.8332 20.0101 35.8332Z" fill="#00C7BE"/>
</g>
</g>
</svg>
