<svg width="28" height="28" viewBox="0 0 28 28" fill="currentColor" xmlns="http://www.w3.org/2000/svg">
<g id="account_circle">
<mask id="mask0_21_393" style="mask-type:alpha" maskUnits="userSpaceOnUse" x="0" y="0" width="28" height="28">
<rect id="Bounding box" width="28" height="28"/>
</mask>
<g mask="url(#mask0_21_393)">
<path id="account_circle_2" d="M6.85328 20.4707C7.96064 19.7268 9.09163 19.1509 10.2462 18.7432C11.4007 18.3352 12.6519 18.1312 14 18.1312C15.3481 18.1312 16.6014 18.3352 17.7599 18.7432C18.9184 19.1509 20.0513 19.7268 21.1587 20.4707C21.9658 19.5498 22.5774 18.5507 22.9935 17.4732C23.4094 16.3958 23.6174 15.2381 23.6174 14.0001C23.6174 11.3033 22.6887 9.02619 20.8314 7.16867C18.9739 5.31133 16.6967 4.38267 14 4.38267C11.3032 4.38267 9.0261 5.31133 7.16857 7.16867C5.31124 9.02619 4.38257 11.3033 4.38257 14.0001C4.38257 15.2381 4.59257 16.3958 5.01257 17.4732C5.43257 18.5507 6.04614 19.5498 6.85328 20.4707ZM13.9965 14.733C12.9418 14.733 12.054 14.3714 11.333 13.648C10.6122 12.9247 10.2518 12.0357 10.2518 10.981C10.2518 9.92657 10.6134 9.03883 11.3368 8.31783C12.0601 7.59683 12.949 7.23633 14.0035 7.23633C15.0582 7.23633 15.946 7.598 16.667 8.32133C17.3878 9.04466 17.7482 9.93366 17.7482 10.9883C17.7482 12.0428 17.3865 12.9305 16.6632 13.6515C15.9399 14.3725 15.051 14.733 13.9965 14.733ZM13.9921 25.0834C12.4562 25.0834 11.0131 24.794 9.66291 24.2151C8.31288 23.6363 7.13843 22.8448 6.13957 21.8407C5.14071 20.8366 4.35389 19.6626 3.77912 18.3188C3.20414 16.975 2.91666 15.5322 2.91666 13.9905C2.91666 12.4536 3.20609 11.012 3.78495 9.66562C4.36381 8.31929 5.1553 7.14737 6.15941 6.14987C7.16352 5.15218 8.33748 4.3639 9.68128 3.78504C11.0251 3.20618 12.4679 2.91675 14.0096 2.91675C15.5465 2.91675 16.9881 3.20618 18.3344 3.78504C19.6808 4.3639 20.8527 5.15218 21.8502 6.14987C22.8479 7.14737 23.6362 8.32036 24.215 9.66883C24.7939 11.0173 25.0833 12.4593 25.0833 13.9948C25.0833 15.5356 24.7939 16.9774 24.215 18.3202C23.6362 19.6631 22.8479 20.8366 21.8502 21.8407C20.8527 22.8448 19.6788 23.6363 18.3286 24.2151C16.9786 24.794 15.5331 25.0834 13.9921 25.0834Z" fill="currentColor"/>
</g>
</g>
</svg>
