<svg width="28" height="28" viewBox="0 0 28 28" fill="currentColor" xmlns="http://www.w3.org/2000/svg">
<g id="home">
<mask id="mask0_1_116" style="mask-type:alpha" maskUnits="userSpaceOnUse" x="0" y="0" width="28" height="28">
<rect id="Bounding box" width="28" height="28" fill="#D9D9D9"/>
</mask>
<g mask="url(#mask0_1_116)">
<path id="home_2" d="M5.25 22.4508V11.704C5.25 11.4118 5.31339 11.1376 5.44017 10.8815C5.56714 10.6253 5.74807 10.4133 5.98296 10.2457L12.908 5.02576C13.2226 4.78153 13.585 4.65942 13.995 4.65942C14.4051 4.65942 14.7708 4.78153 15.092 5.02576L22.017 10.2457C22.2519 10.4133 22.4329 10.6253 22.5598 10.8815C22.6866 11.1376 22.75 11.4118 22.75 11.704V22.4508C22.75 22.851 22.6057 23.1953 22.3172 23.4839C22.0286 23.7724 21.6842 23.9167 21.2841 23.9167H17.1337C16.8749 23.9167 16.6581 23.8293 16.4833 23.6545C16.3084 23.4797 16.221 23.263 16.221 23.0044V17.0214C16.221 16.7628 16.1336 16.5461 15.9588 16.3713C15.784 16.1965 15.5673 16.1091 15.3087 16.1091H12.6913C12.4327 16.1091 12.216 16.1965 12.0412 16.3713C11.8664 16.5461 11.779 16.7628 11.779 17.0214V23.0044C11.779 23.263 11.6916 23.4797 11.5167 23.6545C11.3419 23.8293 11.1251 23.9167 10.8663 23.9167H6.71592C6.31575 23.9167 5.97139 23.7724 5.68283 23.4839C5.39428 23.1953 5.25 22.851 5.25 22.4508Z" fill="currentColor"/>
</g>
</g>
</svg>
