<svg width="28" height="28" viewBox="0 0 28 28" fill="currentColor" xmlns="http://www.w3.org/2000/svg">
<g id="workspaces">
<mask id="mask0_21_319" style="mask-type:alpha" maskUnits="userSpaceOnUse" x="0" y="0" width="28" height="28">
<rect id="Bounding box" width="28" height="28" fill="#D9D9D9"/>
</mask>
<g mask="url(#mask0_21_319)">
<path id="workspaces_2" d="M6.85795 24.0512C5.72686 24.0512 4.76475 23.6548 3.97161 22.8618C3.17867 22.0687 2.7822 21.1066 2.7822 19.9755C2.7822 18.8446 3.17867 17.8826 3.97161 17.0894C4.76475 16.2963 5.72686 15.8997 6.85795 15.8997C7.98883 15.8997 8.95085 16.2963 9.74399 17.0894C10.5371 17.8826 10.9337 18.8446 10.9337 19.9755C10.9337 21.1066 10.5371 22.0687 9.74399 22.8618C8.95085 23.6548 7.98883 24.0512 6.85795 24.0512ZM21.154 24.0512C20.028 24.0512 19.0672 23.6548 18.2717 22.8618C17.4761 22.0687 17.0782 21.1066 17.0782 19.9755C17.0782 18.8446 17.4761 17.8826 18.2717 17.0894C19.0672 16.2963 20.028 15.8997 21.154 15.8997C22.2851 15.8997 23.2472 16.2963 24.0403 17.0894C24.8333 17.8826 25.2297 18.8446 25.2297 19.9755C25.2297 21.1066 24.8333 22.0687 24.0403 22.8618C23.2472 23.6548 22.2851 24.0512 21.154 24.0512ZM14.0119 12.0885C12.8859 12.0885 11.9251 11.6907 11.1294 10.895C10.3339 10.0995 9.9362 9.13879 9.9362 8.01276C9.9362 6.88168 10.3339 5.91957 11.1294 5.12643C11.9251 4.33348 12.8859 3.93701 14.0119 3.93701C15.143 3.93701 16.105 4.33348 16.898 5.12643C17.6911 5.91957 18.0877 6.88168 18.0877 8.01276C18.0877 9.13879 17.6911 10.0995 16.898 10.895C16.105 11.6907 15.143 12.0885 14.0119 12.0885Z" fill="currentColor"/>
</g>
</g>
</svg>
