<svg width="24" height="24" viewBox="0 0 24 24" fill="none" xmlns="http://www.w3.org/2000/svg">
<g id="notifications_active">
<mask id="mask0_1_1091" style="mask-type:alpha" maskUnits="userSpaceOnUse" x="0" y="0" width="24" height="24">
<rect id="Bounding box" width="24" height="24" fill="#D9D9D9"/>
</mask>
<g mask="url(#mask0_1_1091)">
<path id="notifications_active_2" d="M5.24993 18.8845C5.03709 18.8845 4.85893 18.8128 4.71543 18.6693C4.57176 18.5256 4.49993 18.3474 4.49993 18.1348C4.49993 17.9219 4.57176 17.7437 4.71543 17.6C4.85893 17.4565 5.03709 17.3848 5.24993 17.3848H6.30768V9.923C6.30768 8.57817 6.72276 7.38908 7.55293 6.35575C8.38293 5.32242 9.44859 4.6615 10.7499 4.373V3.75C10.7499 3.40383 10.8718 3.109 11.1154 2.8655C11.3589 2.62183 11.6538 2.5 11.9999 2.5C12.3461 2.5 12.6409 2.62183 12.8844 2.8655C13.1281 3.109 13.2499 3.40383 13.2499 3.75V4.373C14.5513 4.6615 15.6169 5.32242 16.4469 6.35575C17.2771 7.38908 17.6922 8.57817 17.6922 9.923V17.3848H18.7499C18.9628 17.3848 19.1409 17.4565 19.2844 17.6C19.4281 17.7437 19.4999 17.9219 19.4999 18.1348C19.4999 18.3474 19.4281 18.5256 19.2844 18.6693C19.1409 18.8128 18.9628 18.8845 18.7499 18.8845H5.24993ZM11.9999 21.6923C11.5013 21.6923 11.0753 21.5157 10.7222 21.1625C10.3688 20.8093 10.1922 20.3833 10.1922 19.8845H13.8077C13.8077 20.3833 13.631 20.8093 13.2777 21.1625C12.9245 21.5157 12.4986 21.6923 11.9999 21.6923ZM3.36543 9.9135C3.15259 9.9135 2.97434 9.83242 2.83068 9.67025C2.68718 9.50808 2.62568 9.31733 2.64618 9.098C2.75384 7.8545 3.08776 6.70008 3.64793 5.63475C4.20826 4.56925 4.93326 3.64933 5.82293 2.875C5.98843 2.73017 6.17659 2.66283 6.38743 2.673C6.59826 2.68333 6.76785 2.77633 6.89618 2.952C7.02434 3.12767 7.07176 3.31675 7.03843 3.51925C7.0051 3.72175 6.90576 3.89742 6.74043 4.04625C6.02626 4.68208 5.44643 5.434 5.00093 6.302C4.55543 7.16983 4.27884 8.11083 4.17118 9.125C4.14418 9.34417 4.05793 9.53042 3.91243 9.68375C3.76693 9.83692 3.58459 9.9135 3.36543 9.9135ZM20.6344 9.9135C20.4153 9.9135 20.2329 9.83692 20.0874 9.68375C19.9419 9.53042 19.8557 9.34417 19.8287 9.125C19.721 8.11083 19.4444 7.16983 18.9989 6.302C18.5534 5.434 17.9736 4.68208 17.2594 4.04625C17.0941 3.89742 16.9948 3.72175 16.9614 3.51925C16.9281 3.31675 16.9755 3.12767 17.1037 2.952C17.232 2.77633 17.4016 2.68333 17.6124 2.673C17.8233 2.66283 18.0114 2.73017 18.1769 2.875C19.0666 3.64933 19.7916 4.56925 20.3519 5.63475C20.9121 6.70008 21.246 7.8545 21.3537 9.098C21.3742 9.31733 21.3127 9.50808 21.1692 9.67025C21.0255 9.83242 20.8473 9.9135 20.6344 9.9135Z" fill="#00C7BE"/>
</g>
</g>
</svg>
