<svg width="16" height="16" viewBox="0 0 16 16" fill="currentColor" xmlns="http://www.w3.org/2000/svg">
<g id="favorite">
<mask id="mask0_1_171" style="mask-type:alpha" maskUnits="userSpaceOnUse" x="0" y="0" width="16" height="16">
<rect id="Bounding box" width="16" height="16" fill="#D9D9D9"/>
</mask>
<g mask="url(#mask0_1_171)">
<path id="favorite_2" d="M7.99363 13.1393C7.85085 13.1393 7.70746 13.1137 7.56346 13.0624C7.41946 13.0111 7.29274 12.9308 7.18329 12.8214L6.22563 11.9509C5.04363 10.8732 3.98829 9.81439 3.05963 8.77461C2.13096 7.73483 1.66663 6.62094 1.66663 5.43294C1.66663 4.48683 1.98563 3.69472 2.62363 3.05661C3.26174 2.41861 4.05385 2.09961 4.99996 2.09961C5.53751 2.09961 6.06851 2.22355 6.59296 2.47144C7.11729 2.71933 7.58629 3.12189 7.99996 3.67911C8.41362 3.12189 8.88262 2.71933 9.40696 2.47144C9.9314 2.22355 10.4624 2.09961 11 2.09961C11.9461 2.09961 12.7382 2.41861 13.3763 3.05661C14.0143 3.69472 14.3333 4.48683 14.3333 5.43294C14.3333 6.63383 13.8611 7.76011 12.9166 8.81177C11.9722 9.86344 10.9192 10.9132 9.75762 11.9611L8.81012 12.8214C8.70079 12.9308 8.57307 13.0111 8.42696 13.0624C8.28074 13.1137 8.13629 13.1393 7.99363 13.1393Z" fill="currentColor" stroke="#ff3b30"/>
</g>
</g>
</svg>
