<svg width="16" height="16" viewBox="0 0 16 16" fill="currentColor" xmlns="http://www.w3.org/2000/svg">
<g id="bookmark">
<mask id="mask0_1_166" style="mask-type:alpha" maskUnits="userSpaceOnUse" x="0" y="0" width="16" height="16">
<rect id="Bounding box" width="16" height="16" fill="#D9D9D9"/>
</mask>
<g mask="url(#mask0_1_166)">
<path id="bookmark_2" d="M7.99996 11.6414L5.35379 12.7772C4.95213 12.949 4.57051 12.9161 4.20896 12.6786C3.8474 12.441 3.66663 12.1069 3.66663 11.6761V3.53891C3.66663 3.20213 3.78329 2.91707 4.01663 2.68374C4.24996 2.45041 4.53501 2.33374 4.87179 2.33374H11.1281C11.4649 2.33374 11.75 2.45041 11.9833 2.68374C12.2166 2.91707 12.3333 3.20213 12.3333 3.53891V11.6761C12.3333 12.1069 12.1525 12.441 11.791 12.6786C11.4294 12.9161 11.0478 12.949 10.6461 12.7772L7.99996 11.6414ZM7.99996 10.5337L11.0448 11.8452C11.1132 11.8751 11.1784 11.8687 11.2403 11.8261C11.3023 11.7833 11.3333 11.7256 11.3333 11.6529V3.53891C11.3333 3.48757 11.3119 3.44057 11.2691 3.39791C11.2265 3.35513 11.1795 3.33374 11.1281 3.33374H4.87179C4.82046 3.33374 4.77346 3.35513 4.73079 3.39791C4.68801 3.44057 4.66663 3.48757 4.66663 3.53891V11.6529C4.66663 11.7256 4.69763 11.7833 4.75963 11.8261C4.82151 11.8687 4.88668 11.8751 4.95513 11.8452L7.99996 10.5337Z" fill="#7A7A7A"/>
</g>
</g>
</svg>
