<svg width="20" height="20" viewBox="0 0 20 20" fill="none" xmlns="http://www.w3.org/2000/svg">
<g id="swap_vert">
<mask id="mask0_1_373" style="mask-type:alpha" maskUnits="userSpaceOnUse" x="0" y="0" width="20" height="20">
<rect id="Bounding box" width="20" height="20" fill="#D9D9D9"/>
</mask>
<g mask="url(#mask0_1_373)">
<path id="swap_vert_2" d="M7.63599 10.5368C7.45877 10.5368 7.3103 10.4769 7.19057 10.357C7.07099 10.2373 7.0112 10.0889 7.0112 9.91184V4.46954L5.08016 6.40059C4.96738 6.516 4.82648 6.57371 4.65745 6.57371C4.48842 6.57371 4.33926 6.51392 4.20995 6.39434C4.08064 6.26392 4.01599 6.11482 4.01599 5.94704C4.01599 5.77941 4.08064 5.63093 4.20995 5.50163L7.10099 2.61059C7.17891 2.53253 7.26148 2.47753 7.3487 2.44559C7.43606 2.4135 7.5296 2.39746 7.62932 2.39746C7.72905 2.39746 7.82377 2.41357 7.91349 2.44579C8.00321 2.47816 8.08655 2.53309 8.16349 2.61059L11.0754 5.52246C11.1993 5.64635 11.2604 5.79003 11.2587 5.9535C11.2572 6.11698 11.1918 6.26392 11.0624 6.39434C10.9331 6.51392 10.7868 6.57586 10.6233 6.58017C10.4598 6.58434 10.3135 6.52184 10.1843 6.39267L8.2612 4.46954V9.91975C8.2612 10.0946 8.20127 10.2411 8.08141 10.3593C7.96155 10.4777 7.81307 10.5368 7.63599 10.5368ZM12.3706 17.5945C12.2709 17.5945 12.1761 17.5784 12.0864 17.546C11.9967 17.5138 11.9134 17.4589 11.8364 17.3814L8.92453 14.4695C8.80064 14.3455 8.73953 14.2018 8.7412 14.0385C8.74273 13.875 8.80814 13.7281 8.93745 13.5977C9.06675 13.4781 9.21314 13.4161 9.37662 13.4118C9.54009 13.4075 9.68641 13.47 9.81557 13.5993L11.7387 15.5225V10.072C11.7387 9.89732 11.7986 9.75079 11.9185 9.63246C12.0384 9.51427 12.1868 9.45517 12.3639 9.45517C12.5411 9.45517 12.6896 9.51503 12.8093 9.63475C12.9289 9.75461 12.9887 9.90309 12.9887 10.0802V15.5225L14.9197 13.5912C15.0325 13.4759 15.1734 13.4183 15.3424 13.4183C15.5115 13.4183 15.6606 13.4781 15.7899 13.5977C15.9193 13.7281 15.9839 13.8771 15.9839 14.0448C15.9839 14.2125 15.9193 14.3611 15.7899 14.4904L12.8989 17.3814C12.821 17.4593 12.7384 17.5143 12.6512 17.5464C12.5638 17.5785 12.4703 17.5945 12.3706 17.5945Z" fill="#3C3C43" fill-opacity="0.6"/>
</g>
</g>
</svg>
